<svg width="120" height="120" viewBox="0 0 120 120" xmlns="http://www.w3.org/2000/svg">
        <defs>
          <linearGradient id="a-bg" x1="0" y1="0" x2="1" y2="1">
            <stop offset="0" stop-color="#fdfdfe"></stop>
            <stop offset="1" stop-color="#eef1f8"></stop>
          </linearGradient>
          <linearGradient id="a-tower" x1="0" y1="0" x2="0" y2="1">
            <stop offset="0" stop-color="#e8a9a4"></stop>
            <stop offset="0.45" stop-color="#b9b4de"></stop>
            <stop offset="1" stop-color="#9db4e0"></stop>
          </linearGradient>
          <linearGradient id="a-beamL" x1="1" y1="0.5" x2="0" y2="0.5">
            <stop offset="0" stop-color="#ffd98a" stop-opacity="0.95"></stop>
            <stop offset="1" stop-color="#ffd98a" stop-opacity="0"></stop>
          </linearGradient>
          <linearGradient id="a-beamR" x1="0" y1="0.5" x2="1" y2="0.5">
            <stop offset="0" stop-color="#ffd98a" stop-opacity="0.95"></stop>
            <stop offset="1" stop-color="#ffd98a" stop-opacity="0"></stop>
          </linearGradient>
          <radialGradient id="a-glow" cx="0.5" cy="0.5" r="0.5">
            <stop offset="0" stop-color="#ffe9b3" stop-opacity="0.9"></stop>
            <stop offset="1" stop-color="#ffe9b3" stop-opacity="0"></stop>
          </radialGradient>
        </defs>
        <rect width="120" height="120" rx="26" fill="url(#a-bg)"></rect>
        <polygon points="52,42 8,28 8,56" fill="url(#a-beamL)"></polygon>
        <polygon points="68,42 112,28 112,56" fill="url(#a-beamR)"></polygon>
        <circle cx="60" cy="42" r="26" fill="url(#a-glow)"></circle>
        <polygon points="52,54 68,54 76,100 44,100" fill="url(#a-tower)"></polygon>
        <rect x="49" y="34" width="22" height="16" rx="4" fill="#f3c98d"></rect>
        <rect x="46" y="50" width="28" height="6" rx="3" fill="#a9a6d6"></rect>
        <polygon points="60,20 72,34 48,34" fill="#e39a94"></polygon>
        <circle cx="60" cy="42" r="4.5" fill="#fff3cf"></circle>
        <rect x="36" y="100" width="48" height="6" rx="3" fill="#b7c6e6"></rect>
      </svg>