<svg preserveAspectRatio="none" width="100%" height="100%" overflow="visible" style="display: block;" viewBox="0 0 100.273 18.8095" fill="none" xmlns="http://www.w3.org/2000/svg">
<g id="Flowdesk">
<path id="Vector" d="M87.7209 18.0249V0.504928C88.9958 -0.150215 89.6764 -0.186164 90.9609 0.504928V10.5849L95.6409 5.54493C97.521 4.7422 98.5842 4.66386 100.249 5.54493L94.3689 11.3529L100.273 18.0249C98.5834 18.8814 97.6633 18.7659 95.9769 18.0249L90.9609 12.0969V18.0249C89.6481 18.5689 88.915 18.7933 87.7209 18.0249Z" fill="var(--fill-0, black)"/>
<path id="Vector_2" d="M81.6101 18.3369C79.5141 18.3369 77.7861 17.6089 76.4261 16.1529C76.8107 15.0151 77.2248 14.5367 78.6101 14.1609C79.5221 15.1849 80.4981 15.6969 81.5381 15.6969C82.0981 15.6969 82.5221 15.5769 82.8101 15.3369C83.1141 15.0809 83.2661 14.7689 83.2661 14.4009C83.2661 14.1769 83.2101 13.9849 83.0981 13.8249C83.0021 13.6649 82.7861 13.5129 82.4501 13.3689C82.1301 13.2249 81.6421 13.0809 80.9861 12.9369C79.8661 12.6649 79.0341 12.3289 78.4901 11.9289C77.9461 11.5289 77.5861 11.0809 77.4101 10.5849C77.2341 10.0889 77.1461 9.57693 77.1461 9.04893C77.1461 7.96093 77.5541 7.05693 78.3701 6.33693C79.2021 5.60093 80.3461 5.23293 81.8021 5.23293C82.8101 5.23293 83.6741 5.38493 84.3941 5.68893C85.1141 5.99293 85.7941 6.56093 86.4341 7.39293C85.9734 8.57563 85.5565 9.0115 84.0821 9.19293C83.7781 8.71293 83.4341 8.36893 83.0501 8.16093C82.6821 7.95293 82.2901 7.84893 81.8741 7.84893C81.4261 7.84893 81.0501 7.93693 80.7461 8.11293C80.4581 8.28893 80.3141 8.56893 80.3141 8.95293C80.3141 9.16093 80.4101 9.36893 80.6021 9.57693C80.7941 9.76893 81.2581 9.96093 81.9941 10.1529C83.2101 10.4569 84.1381 10.8169 84.7781 11.2329C85.4181 11.6329 85.8581 12.0889 86.0981 12.6009C86.3381 13.1129 86.4581 13.6809 86.4581 14.3049C86.4581 15.0729 86.2421 15.7609 85.8101 16.3689C85.3941 16.9769 84.8181 17.4569 84.0821 17.8089C83.3621 18.1609 82.5381 18.3369 81.6101 18.3369Z" fill="var(--fill-0, black)"/>
<path id="Vector_3" d="M69.9313 18.3369C68.6513 18.3369 67.5233 18.0409 66.5473 17.4489C65.5713 16.8569 64.8113 16.0729 64.2673 15.0969C63.7393 14.1049 63.4753 13.0089 63.4753 11.8089C63.4753 10.6089 63.7553 9.51293 64.3153 8.52093C64.8753 7.51293 65.6353 6.71293 66.5953 6.12093C67.5713 5.52893 68.6833 5.23293 69.9313 5.23293C71.1793 5.23293 72.2753 5.52893 73.2193 6.12093C74.1793 6.71293 74.9233 7.51293 75.4513 8.52093C75.9953 9.51293 76.2673 10.6089 76.2673 11.8089C76.2673 11.9849 76.2593 12.1689 76.2433 12.3609C76.2273 12.5529 76.2033 12.7529 76.1713 12.9609H66.8353C67.0113 13.6969 67.3633 14.2969 67.8913 14.7609C68.4353 15.2249 69.1153 15.4569 69.9313 15.4569C70.6353 15.4569 71.2433 15.2969 71.7553 14.9769C72.2833 14.6569 72.6913 14.2569 72.9793 13.7769C74.284 13.9968 74.9098 14.3768 75.4993 15.6729C75.0033 16.4569 74.2593 17.0969 73.2673 17.5929C72.2753 18.0889 71.1633 18.3369 69.9313 18.3369ZM69.8833 8.01693C69.1153 8.01693 68.4593 8.24893 67.9153 8.71293C67.3713 9.17693 67.0113 9.78493 66.8353 10.5369H73.0033C72.8273 9.84893 72.4593 9.25693 71.8993 8.76093C71.3553 8.26493 70.6833 8.01693 69.8833 8.01693Z" fill="var(--fill-0, black)"/>
<path id="Vector_4" d="M54.8542 18.3369C53.7182 18.3369 52.6782 18.0489 51.7342 17.4729C50.8062 16.8809 50.0622 16.0969 49.5022 15.1209C48.9582 14.1289 48.6862 13.0329 48.6862 11.8329C48.6862 10.9369 48.8462 10.0969 49.1662 9.31293C49.4862 8.51293 49.9262 7.81693 50.4862 7.22493C51.0462 6.61693 51.6942 6.14493 52.4302 5.80893C53.1822 5.45693 53.9902 5.28093 54.8542 5.28093C55.9262 5.28093 56.7662 5.48093 57.3742 5.88093C57.9822 6.28093 58.4542 6.80893 58.7902 7.46493V0.504928C60.0493 -0.112579 60.7556 -0.156574 62.0302 0.504928V18.0249C60.7367 18.9396 60.1688 18.9239 58.8862 18.0249V15.9849C58.5502 16.6889 58.0702 17.2569 57.4462 17.6889C56.8382 18.1209 55.9742 18.3369 54.8542 18.3369ZM55.3822 15.4089C56.1022 15.4089 56.7182 15.2489 57.2302 14.9289C57.7582 14.5929 58.1662 14.1529 58.4542 13.6089C58.7422 13.0649 58.8862 12.4729 58.8862 11.8329C58.8862 11.1769 58.7422 10.5769 58.4542 10.0329C58.1662 9.48893 57.7582 9.04893 57.2302 8.71293C56.7182 8.37693 56.1022 8.20893 55.3822 8.20893C54.6942 8.20893 54.0862 8.37693 53.5582 8.71293C53.0462 9.03293 52.6462 9.46493 52.3582 10.0089C52.0702 10.5529 51.9262 11.1529 51.9262 11.8089C51.9262 12.4329 52.0702 13.0249 52.3582 13.5849C52.6462 14.1289 53.0462 14.5689 53.5582 14.9049C54.0862 15.2409 54.6942 15.4089 55.3822 15.4089Z" fill="var(--fill-0, black)"/>
<path id="Vector_5" d="M33.2197 18.0249L29.3317 5.54493C30.8037 4.77641 31.6468 4.86318 33.1237 5.54493L34.7318 12.6249C34.7958 12.9289 34.8597 13.2489 34.9237 13.5849C35.0037 13.9049 35.0677 14.2169 35.1157 14.5209C35.2117 13.8809 35.3478 13.2409 35.5238 12.6009L37.3477 5.54493C38.7924 4.45579 39.615 4.60326 41.0677 5.54493L43.0117 12.6009C43.1877 13.2409 43.3238 13.8809 43.4198 14.5209C43.4678 14.2169 43.5237 13.9049 43.5877 13.5849C43.6677 13.2489 43.7397 12.9289 43.8037 12.6249L45.5317 5.54493C46.9247 4.83198 47.6761 4.92099 49.0597 5.54493L45.1717 18.0249C43.8157 19.0539 43.1818 19.0877 41.6678 18.0249L39.6278 10.9209C39.4358 10.2969 39.2918 9.67293 39.1958 9.04893C39.1478 9.35293 39.0918 9.66493 39.0278 9.98493C38.9638 10.3049 38.8917 10.6169 38.8117 10.9209L36.9398 18.0249C35.4809 18.899 34.6816 18.9695 33.2197 18.0249Z" fill="var(--fill-0, black)"/>
<path id="Vector_6" d="M22.9905 18.3369C21.7105 18.3369 20.5665 18.0409 19.5585 17.4489C18.5505 16.8569 17.7585 16.0729 17.1825 15.0969C16.6225 14.1049 16.3425 13.0089 16.3425 11.8089C16.3425 10.6089 16.6225 9.51293 17.1825 8.52093C17.7585 7.52893 18.5505 6.73693 19.5585 6.14493C20.5665 5.55293 21.7105 5.25693 22.9905 5.25693C24.2865 5.25693 25.4305 5.55293 26.4225 6.14493C27.4305 6.73693 28.2145 7.52893 28.7745 8.52093C29.3505 9.51293 29.6385 10.6089 29.6385 11.8089C29.6385 13.0089 29.3505 14.1049 28.7745 15.0969C28.2145 16.0729 27.4305 16.8569 26.4225 17.4489C25.4305 18.0409 24.2865 18.3369 22.9905 18.3369ZM22.9905 15.3849C23.6785 15.3849 24.2785 15.2249 24.7905 14.9049C25.3025 14.5689 25.6945 14.1289 25.9665 13.5849C26.2545 13.0409 26.3985 12.4489 26.3985 11.8089C26.3985 11.1529 26.2545 10.5529 25.9665 10.0089C25.6945 9.46493 25.3025 9.03293 24.7905 8.71293C24.2785 8.37693 23.6785 8.20893 22.9905 8.20893C22.3025 8.20893 21.7025 8.37693 21.1905 8.71293C20.6785 9.03293 20.2785 9.46493 19.9905 10.0089C19.7185 10.5529 19.5825 11.1529 19.5825 11.8089C19.5825 12.4489 19.7185 13.0409 19.9905 13.5849C20.2785 14.1289 20.6785 14.5689 21.1905 14.9049C21.7025 15.2249 22.3025 15.3849 22.9905 15.3849Z" fill="var(--fill-0, black)"/>
<path id="Vector_7" d="M11.6662 18.0249V0.504927C12.9413 -0.0457067 13.6396 0.0166892 14.9062 0.504927V18.0249C13.6443 18.9251 12.9349 18.9869 11.6662 18.0249Z" fill="var(--fill-0, black)"/>
<path id="Vector_8" d="M0 18.0249V1.22493H9.864C10.3522 2.40808 10.3952 3.06609 9.864 4.24893H3.36V8.18493H9.744C10.2009 9.34147 10.2112 9.99307 9.744 11.1609H3.36V18.0249C2.05521 18.8249 1.30479 18.9465 0 18.0249Z" fill="var(--fill-0, black)"/>
</g>
</svg>
