<svg preserveAspectRatio="none" width="100%" height="100%" overflow="visible" style="display: block;" viewBox="0 0 24.0017 24.0028" fill="none" xmlns="http://www.w3.org/2000/svg">
<g id="Group">
<path id="Vector" d="M0.293842 14.7673C0.240445 14.5396 0.511649 14.3963 0.677044 14.5616L9.44104 23.3256C9.60639 23.491 9.46303 23.7622 9.23533 23.7088C4.81266 22.6713 1.33136 19.19 0.293842 14.7673Z" fill="var(--fill-0, black)"/>
<path id="Vector_2" d="M0.00045979 11.2547C-0.00380634 11.3227 0.0217902 11.3891 0.0699366 11.4373L12.5656 23.9329C12.6137 23.9811 12.6801 24.0067 12.7481 24.0024C13.3168 23.967 13.8748 23.892 14.4193 23.7802C14.6028 23.7425 14.6665 23.517 14.5341 23.3845L0.618298 9.46875C0.485814 9.33631 0.260365 9.40007 0.222673 9.58356C0.110863 10.1281 0.0358546 10.6861 0.00045979 11.2547Z" fill="var(--fill-0, black)"/>
<path id="Vector_3" d="M1.01045 7.13013C0.970513 7.21986 0.990858 7.32469 1.06029 7.39412L16.6084 22.9422C16.6778 23.0117 16.7827 23.032 16.8724 22.9921C17.3011 22.8011 17.7166 22.5858 18.1171 22.3478C18.2496 22.2691 18.2701 22.087 18.1611 21.978L2.02453 5.84148C1.91553 5.73248 1.73345 5.75292 1.65469 5.88545C1.41672 6.28591 1.2014 6.70141 1.01045 7.13013Z" fill="var(--fill-0, black)"/>
<path id="Vector_4" d="M3.03729 4.33828C2.94845 4.24944 2.94292 4.10693 3.02665 4.01326C5.22652 1.55043 8.42654 0 11.9887 0C18.6233 0 24.0017 5.37837 24.0017 12.013C24.0017 15.5751 22.4512 18.7752 19.9884 20.975C19.8947 21.0588 19.7522 21.0532 19.6634 20.9644L3.03729 4.33828Z" fill="var(--fill-0, black)"/>
</g>
</svg>
